<mxfile host="65bd71144e">
    <diagram id="C5RBs43oDa-KdzZeNtuy" name="Page-1">
        <mxGraphModel dx="1591" dy="571" grid="1" gridSize="10" guides="1" tooltips="1" connect="1" arrows="1" fold="1" page="1" pageScale="1" pageWidth="827" pageHeight="1169" math="0" shadow="0">
            <root>
                <mxCell id="WIyWlLk6GJQsqaUBKTNV-0"/>
                <mxCell id="WIyWlLk6GJQsqaUBKTNV-1" parent="WIyWlLk6GJQsqaUBKTNV-0"/>
                <mxCell id="botuMRiFrDOTNjxNw__w-1" value="IMasonryUnit&#10;" style="swimlane;fontStyle=2;align=center;verticalAlign=top;childLayout=stackLayout;horizontal=1;startSize=26;horizontalStack=0;resizeParent=1;resizeLast=0;collapsible=1;marginBottom=0;rounded=0;shadow=0;strokeWidth=1;strokeColor=none;" parent="WIyWlLk6GJQsqaUBKTNV-1" vertex="1">
                    <mxGeometry x="-150" y="10" width="250" height="80" as="geometry">
                        <mxRectangle x="230" y="140" width="160" height="26" as="alternateBounds"/>
                    </mxGeometry>
                </mxCell>
                <mxCell id="botuMRiFrDOTNjxNw__w-2" value="id: string&#10;ratio: number&#10;" style="text;align=left;verticalAlign=top;spacingLeft=4;spacingRight=4;overflow=hidden;rotatable=0;points=[[0,0.5],[1,0.5]];portConstraint=eastwest;rounded=0;shadow=0;html=0;strokeWidth=1;strokeColor=default;" parent="botuMRiFrDOTNjxNw__w-1" vertex="1">
                    <mxGeometry y="26" width="250" height="44" as="geometry"/>
                </mxCell>
                <mxCell id="botuMRiFrDOTNjxNw__w-18" value="MasonryUnitImage" style="swimlane;fontStyle=2;align=center;verticalAlign=top;childLayout=stackLayout;horizontal=1;startSize=26;horizontalStack=0;resizeParent=1;resizeLast=0;collapsible=1;marginBottom=0;rounded=0;shadow=0;strokeWidth=1;" parent="WIyWlLk6GJQsqaUBKTNV-1" vertex="1">
                    <mxGeometry x="289" width="250" height="150" as="geometry">
                        <mxRectangle x="230" y="140" width="160" height="26" as="alternateBounds"/>
                    </mxGeometry>
                </mxCell>
                <mxCell id="botuMRiFrDOTNjxNw__w-19" value="- sourceWidth: number&#10;- sourceHeight: number&#10;+ id: string&#10;+ source: string" style="text;align=left;verticalAlign=top;spacingLeft=4;spacingRight=4;overflow=hidden;rotatable=0;points=[[0,0.5],[1,0.5]];portConstraint=eastwest;rounded=0;shadow=0;html=0;" parent="botuMRiFrDOTNjxNw__w-18" vertex="1">
                    <mxGeometry y="26" width="250" height="64" as="geometry"/>
                </mxCell>
                <mxCell id="botuMRiFrDOTNjxNw__w-20" value="" style="line;html=1;strokeWidth=1;align=left;verticalAlign=middle;spacingTop=-1;spacingLeft=3;spacingRight=3;rotatable=0;labelPosition=right;points=[];portConstraint=eastwest;" parent="botuMRiFrDOTNjxNw__w-18" vertex="1">
                    <mxGeometry y="90" width="250" height="8" as="geometry"/>
                </mxCell>
                <mxCell id="botuMRiFrDOTNjxNw__w-21" value="&amp;nbsp; + ratio(): number&amp;nbsp;&lt;br&gt;&lt;div&gt;&lt;div&gt;&amp;nbsp; + computedSourceSizes(): void&lt;/div&gt;&lt;/div&gt;" style="text;whiteSpace=wrap;html=1;" parent="botuMRiFrDOTNjxNw__w-18" vertex="1">
                    <mxGeometry y="98" width="250" height="52" as="geometry"/>
                </mxCell>
                <mxCell id="botuMRiFrDOTNjxNw__w-27" value="MasonryUnitImageFabric" style="swimlane;fontStyle=2;align=center;verticalAlign=top;childLayout=stackLayout;horizontal=1;startSize=26;horizontalStack=0;resizeParent=1;resizeLast=0;collapsible=1;marginBottom=0;rounded=0;shadow=0;strokeWidth=1;" parent="WIyWlLk6GJQsqaUBKTNV-1" vertex="1">
                    <mxGeometry x="550" y="170" width="280" height="110" as="geometry">
                        <mxRectangle x="230" y="140" width="160" height="26" as="alternateBounds"/>
                    </mxGeometry>
                </mxCell>
                <mxCell id="botuMRiFrDOTNjxNw__w-29" value="" style="line;html=1;strokeWidth=1;align=left;verticalAlign=middle;spacingTop=-1;spacingLeft=3;spacingRight=3;rotatable=0;labelPosition=right;points=[];portConstraint=eastwest;" parent="botuMRiFrDOTNjxNw__w-27" vertex="1">
                    <mxGeometry y="26" width="280" height="8" as="geometry"/>
                </mxCell>
                <mxCell id="botuMRiFrDOTNjxNw__w-30" value="&amp;nbsp;+ createComputedUnits(): MasonryUnitImage&lt;br&gt;" style="text;whiteSpace=wrap;html=1;" parent="botuMRiFrDOTNjxNw__w-27" vertex="1">
                    <mxGeometry y="34" width="280" height="68" as="geometry"/>
                </mxCell>
                <mxCell id="botuMRiFrDOTNjxNw__w-33" value="IMasonryUnitFabric" style="swimlane;fontStyle=2;align=center;verticalAlign=top;childLayout=stackLayout;horizontal=1;startSize=26;horizontalStack=0;resizeParent=1;resizeLast=0;collapsible=1;marginBottom=0;rounded=0;shadow=0;strokeWidth=1;strokeColor=none;" parent="WIyWlLk6GJQsqaUBKTNV-1" vertex="1">
                    <mxGeometry x="827" width="250" height="80" as="geometry">
                        <mxRectangle x="230" y="140" width="160" height="26" as="alternateBounds"/>
                    </mxGeometry>
                </mxCell>
                <mxCell id="botuMRiFrDOTNjxNw__w-34" value="createComputedUnits(): MasonryUnit[]" style="text;align=left;verticalAlign=top;spacingLeft=4;spacingRight=4;overflow=hidden;rotatable=0;points=[[0,0.5],[1,0.5]];portConstraint=eastwest;rounded=0;shadow=0;html=0;strokeWidth=1;strokeColor=default;" parent="botuMRiFrDOTNjxNw__w-33" vertex="1">
                    <mxGeometry y="26" width="250" height="44" as="geometry"/>
                </mxCell>
                <mxCell id="3" style="edgeStyle=elbowEdgeStyle;html=1;exitX=1;exitY=0.5;exitDx=0;exitDy=0;entryX=0.546;entryY=1.074;entryDx=0;entryDy=0;entryPerimeter=0;elbow=vertical;dashed=1;" parent="WIyWlLk6GJQsqaUBKTNV-1" source="botuMRiFrDOTNjxNw__w-30" target="botuMRiFrDOTNjxNw__w-34" edge="1">
                    <mxGeometry relative="1" as="geometry">
                        <Array as="points">
                            <mxPoint x="880" y="238"/>
                        </Array>
                    </mxGeometry>
                </mxCell>
                <mxCell id="5" style="edgeStyle=elbowEdgeStyle;html=1;entryX=1;entryY=0.5;entryDx=0;entryDy=0;dashed=1;" parent="WIyWlLk6GJQsqaUBKTNV-1" source="botuMRiFrDOTNjxNw__w-19" target="botuMRiFrDOTNjxNw__w-2" edge="1">
                    <mxGeometry relative="1" as="geometry"/>
                </mxCell>
                <mxCell id="15" style="edgeStyle=elbowEdgeStyle;elbow=vertical;html=1;entryX=1;entryY=0.5;entryDx=0;entryDy=0;endArrow=open;endFill=0;dashed=1;" parent="WIyWlLk6GJQsqaUBKTNV-1" source="6" target="11" edge="1">
                    <mxGeometry relative="1" as="geometry"/>
                </mxCell>
                <mxCell id="6" value="MasonryMatrixFacade&#10;" style="swimlane;fontStyle=2;align=center;verticalAlign=top;childLayout=stackLayout;horizontal=1;startSize=26;horizontalStack=0;resizeParent=1;resizeLast=0;collapsible=1;marginBottom=0;rounded=0;shadow=0;strokeWidth=1;" parent="WIyWlLk6GJQsqaUBKTNV-1" vertex="1">
                    <mxGeometry x="-150" y="295" width="250" height="86" as="geometry">
                        <mxRectangle x="230" y="140" width="160" height="26" as="alternateBounds"/>
                    </mxGeometry>
                </mxCell>
                <mxCell id="8" value="" style="line;html=1;strokeWidth=1;align=left;verticalAlign=middle;spacingTop=-1;spacingLeft=3;spacingRight=3;rotatable=0;labelPosition=right;points=[];portConstraint=eastwest;" parent="6" vertex="1">
                    <mxGeometry y="26" width="250" height="8" as="geometry"/>
                </mxCell>
                <mxCell id="9" value="&amp;nbsp; + create(): MasonryMatrix&lt;br&gt;&amp;nbsp; + merge(): MasonryMatrix" style="text;whiteSpace=wrap;html=1;" parent="6" vertex="1">
                    <mxGeometry y="34" width="250" height="52" as="geometry"/>
                </mxCell>
                <mxCell id="11" value="MasonryMatrix&#10;" style="swimlane;fontStyle=2;align=center;verticalAlign=top;childLayout=stackLayout;horizontal=1;startSize=26;horizontalStack=0;resizeParent=1;resizeLast=0;collapsible=1;marginBottom=0;rounded=0;shadow=0;strokeWidth=1;strokeColor=none;" parent="WIyWlLk6GJQsqaUBKTNV-1" vertex="1">
                    <mxGeometry x="-480" y="298" width="250" height="80" as="geometry">
                        <mxRectangle x="230" y="140" width="160" height="26" as="alternateBounds"/>
                    </mxGeometry>
                </mxCell>
                <mxCell id="12" value="+ id: string&#10;+ matrix: MasonryUnit[][]" style="text;align=left;verticalAlign=top;spacingLeft=4;spacingRight=4;overflow=hidden;rotatable=0;points=[[0,0.5],[1,0.5]];portConstraint=eastwest;rounded=0;shadow=0;html=0;strokeWidth=1;strokeColor=default;" parent="11" vertex="1">
                    <mxGeometry y="26" width="250" height="44" as="geometry"/>
                </mxCell>
                <mxCell id="14" style="edgeStyle=elbowEdgeStyle;html=1;entryX=0.5;entryY=1;entryDx=0;entryDy=0;elbow=vertical;dashed=1;endArrow=open;endFill=0;" parent="WIyWlLk6GJQsqaUBKTNV-1" source="botuMRiFrDOTNjxNw__w-30" target="botuMRiFrDOTNjxNw__w-21" edge="1">
                    <mxGeometry relative="1" as="geometry">
                        <Array as="points">
                            <mxPoint x="460" y="220"/>
                        </Array>
                    </mxGeometry>
                </mxCell>
                <mxCell id="16" style="edgeStyle=elbowEdgeStyle;elbow=vertical;html=1;endArrow=diamondThin;endFill=1;" parent="WIyWlLk6GJQsqaUBKTNV-1" source="botuMRiFrDOTNjxNw__w-2" target="11" edge="1">
                    <mxGeometry relative="1" as="geometry">
                        <Array as="points">
                            <mxPoint x="-355" y="58"/>
                        </Array>
                    </mxGeometry>
                </mxCell>
            </root>
        </mxGraphModel>
    </diagram>
</mxfile>
